<?xml version="1.0" encoding="UTF-8"?>
<!DOCTYPE svg PUBLIC "-//W3C//DTD SVG 1.1//EN" "http://www.w3.org/Graphics/SVG/1.1/DTD/svg11.dtd">
<!-- Creator: CorelDRAW (Versión de evaluación) -->
<svg xmlns="http://www.w3.org/2000/svg" xml:space="preserve" width="210mm" height="297mm" version="1.1" style="shape-rendering:geometricPrecision; text-rendering:geometricPrecision; image-rendering:optimizeQuality; fill-rule:evenodd; clip-rule:evenodd"
viewBox="0 0 21000 29700"
 xmlns:xlink="http://www.w3.org/1999/xlink"
 xmlns:xodm="http://www.corel.com/coreldraw/odm/2003">
 <defs>
  <style type="text/css">
   <![CDATA[
    .str0 {stroke:#373435;stroke-width:20;stroke-miterlimit:22.9256}
    .fil4 {fill:none}
    .fil0 {fill:#ED9E35}
    .fil1 {fill:#2B2C2C}
    .fil3 {fill:#2377B6}
    .fil2 {fill:#1772B5}
   ]]>
  </style>
 </defs>
 <g id="Capa_x0020_1">
  <metadata id="CorelCorpID_0Corel-Layer"/>
  <g id="_3213271338400">
   <path class="fil0" d="M11694.44 5417.5c-112.91,-240.3 -2523.45,-167.62 -2892.03,-83.06 -1058.35,242.79 -1433.05,292.31 -2343.59,815.63 -1370.87,787.85 -2513.56,1995.15 -2951.58,3557.15 -108,385.16 -167.2,912.36 -226.86,1297.09 -67.05,432.57 37.46,921.1 -271.92,923.77l-685.93 5.98c-417.42,283.52 -193.17,996.02 -18.89,1054.51l15356.42 -0.22c447.38,0 363.49,-1047.68 -56.99,-1047.85l-7999.26 -3.49 55.78 -5346.07 2034.85 -1173.44z"/>
   <path class="fil1" d="M3331.54 13503c-47.03,21.77 -1237.11,1086.84 -1347.28,1186.73l476.94 1232.74c51.19,61.04 60.68,34.22 210.8,-15.34 497.57,-164.17 975.68,29.28 1275.5,356.49 299.81,327.2 496.04,772.87 238.62,1363.75 -127.14,344.39 -416.06,469.6 -303.47,586.5l1060.37 1101.47c6.12,-0.61 727.95,-1002.33 1673.67,-440.51 377.47,224.25 624.85,788.42 588.03,1093.42 -28.38,234.93 -101.88,557.73 -84.62,563.21l1597.82 511.12c64.17,20.49 161.9,-502.69 460.07,-809.34 423.61,-435.56 1388.16,-410.27 1727.21,-14.94 339.05,395.33 341.76,737.19 384.27,779.88l1588.61 -429.87c43.93,-108.21 -56.46,-497.92 28.14,-852.38 160.4,-671.91 1032.52,-1025.41 1486.97,-881.8 454.46,143.61 730.76,491.88 754.34,466.55l1084.46 -1165.53c-153.78,-201.24 -279.07,-395.73 -359.79,-623.57 -99.46,-280.86 -46.24,-716.07 59.66,-926.31 191.92,-380.88 462.24,-550.68 710.01,-642.95 459.26,-171.11 868.68,17.68 876.96,-5.34l445.28 -1239.17 -1144.23 -1186.2 -1661.92 -7.87c4.66,421.48 -71.86,752.6 -154.11,1048.15 -1271.4,4569.39 -7731.14,5052.94 -9681.29,659.74 -282.31,-636.05 -372.56,-1044.69 -423.5,-1706l-1567.52 -2.63z"/>
   <polygon class="fil2" points="10749.25,11476.83 10730.53,7262.21 13716.12,5564.92 13712.92,6625.83 14326.1,6929.7 14329.3,4519.13 10145.28,6879.12 10152.53,11477.01 "/>
   <polygon class="fil3" points="12266.14,5185.6 12906.75,4829.58 12943.96,2512.7 14982.36,3708.4 14992.89,7231.12 15584.38,7548.26 15599.18,3333.67 12336.5,1511.52 "/>
   <polygon class="fil2" points="14328.24,7830.93 16479.37,9034.2 16516.26,11471.39 17013.23,11472.53 17015.75,8748.65 13705.02,6931.91 13730.31,11473.84 14326.81,11473.24 "/>
   <polygon class="fil3" points="10617.45,15529.65 9797.35,17554.98 12163.52,14882.65 10866.72,14906.13 11386.57,13647.3 10212.68,13629.78 9441.86,15524.15 "/>
   <g>
    <line class="fil4 str0" x1="9442.12" y1="15603.84" x2="9442.12" y2= "15603.84" />
   </g>
  </g>
 </g>
</svg>
