<?xml version="1.0" encoding="UTF-8"?>
<!DOCTYPE svg PUBLIC "-//W3C//DTD SVG 1.1//EN" "http://www.w3.org/Graphics/SVG/1.1/DTD/svg11.dtd">
<!-- Creator: CorelDRAW (Versión de evaluación) -->
<svg xmlns="http://www.w3.org/2000/svg" xml:space="preserve" width="210mm" height="210mm" version="1.1" style="shape-rendering:geometricPrecision; text-rendering:geometricPrecision; image-rendering:optimizeQuality; fill-rule:evenodd; clip-rule:evenodd"
viewBox="0 0 21000 21000"
 xmlns:xlink="http://www.w3.org/1999/xlink"
 xmlns:xodm="http://www.corel.com/coreldraw/odm/2003">
 <defs>
  <style type="text/css">
   <![CDATA[
    .str0 {stroke:#373435;stroke-width:20;stroke-miterlimit:22.9256}
    .fil4 {fill:none}
    .fil0 {fill:#ED9E35}
    .fil1 {fill:#2B2C2C}
    .fil3 {fill:#2377B6}
    .fil2 {fill:#1772B5}
   ]]>
  </style>
 </defs>
 <g id="Capa_x0020_1">
  <metadata id="CorelCorpID_0Corel-Layer"/>
  <g id="_3212468047232">
   <path class="fil0" d="M12114.06 4365.24c-116.98,-248.95 -2614.37,-173.66 -2996.23,-86.05 -1096.48,251.53 -1484.68,302.84 -2428.02,845.02 -1420.26,816.23 -2604.13,2067.03 -3057.93,3685.31 -111.89,399.03 -173.22,945.23 -235.02,1343.82 -69.48,448.16 38.81,954.29 -281.73,957.05l-710.64 6.2c-432.46,293.73 -200.12,1031.91 -19.57,1092.5l15909.71 -0.22c463.49,0 376.58,-1085.43 -59.05,-1085.61l-8287.47 -3.61 57.79 -5538.7 2108.16 -1215.71z"/>
   <path class="fil1" d="M3449.85 12742.05c-48.72,22.56 -1281.68,1126.01 -1395.82,1229.5l494.12 1277.14c53.04,63.25 62.88,35.46 218.41,-15.88 515.49,-170.09 1010.83,30.33 1321.44,369.33 310.62,338.99 513.92,800.72 247.23,1412.88 -131.72,356.8 -431.06,486.53 -314.41,607.64l1098.58 1141.15c6.34,-0.63 754.17,-1038.44 1733.97,-456.38 391.07,232.33 647.36,816.82 609.22,1132.82 -29.41,243.39 -105.56,577.82 -87.68,583.49l1655.39 529.54c66.49,21.23 167.73,-520.8 476.65,-838.49 438.88,-451.26 1438.17,-425.06 1789.44,-15.48 351.27,409.57 354.07,763.75 398.11,807.98l1645.85 -445.36c45.52,-112.12 -58.49,-515.87 29.15,-883.09 166.18,-696.13 1069.73,-1062.36 1540.55,-913.57 470.83,148.78 757.09,509.59 781.52,483.35l1123.54 -1207.52c-159.33,-208.5 -289.13,-409.98 -372.76,-646.04 -103.05,-290.97 -47.91,-741.86 61.81,-959.68 198.83,-394.61 478.89,-570.52 735.59,-666.12 475.8,-177.27 899.97,18.32 908.56,-5.53l461.32 -1283.82 -1185.45 -1228.94 -1721.81 -8.14c4.83,436.66 -74.45,779.71 -159.66,1085.9 -1317.21,4734.03 -8009.69,5235.01 -10030.1,683.52 -292.48,-658.97 -385.99,-1082.33 -438.76,-1767.47l-1624 -2.73z"/>
   <polygon class="fil2" points="11134.82,10642.88 11115.43,6276.41 14208.59,4517.97 14205.27,5617.11 14840.54,5931.93 14843.86,3434.5 10509.09,5879.52 10516.6,10643.07 "/>
   <polygon class="fil3" points="12706.36,4124.98 13370.05,3756.14 13408.6,1355.79 15520.45,2594.57 15531.36,6244.2 16144.15,6572.77 16159.49,2206.33 12779.26,318.53 "/>
   <polygon class="fil2" points="14842.76,6865.62 17071.4,8112.25 17109.62,10637.25 17624.49,10638.43 17627.1,7816.41 14197.09,5934.21 14223.29,10639.79 14841.28,10639.16 "/>
   <polygon class="fil3" points="10998.27,14841.73 10148.62,16940.03 12600.05,14171.42 11256.52,14195.74 11795.1,12891.56 10578.92,12873.41 9780.33,14836.03 "/>
   <g>
    <line class="fil4 str0" x1="9780.59" y1="14918.59" x2="9780.59" y2= "14918.59" />
   </g>
  </g>
 </g>
</svg>
